REM COMMENT "Generated by IcecastMetadataRecorder https://github.com/eshaz/icecast-metadata-js"
REM METAINT "64"
REM DATE "2020-07-29T21:16:11.222Z"
TITLE "isics-all"
FILE "isics-all.mp3" WAVE
  TRACK 1 AUDIO
    TITLE "2020-07-29T21:16:11.222Z Scanning..."
    INDEX 01 00:00:00
  TRACK 2 AUDIO
    TITLE "2020-07-29T21:16:19.358Z TO:49021 Polk County - Des Moines Fire Alarm FROM:7750002"
    INDEX 01 00:08:10
  TRACK 3 AUDIO
    TITLE "2020-07-29T21:16:22.814Z Scanning..."
    INDEX 01 00:11:44
  TRACK 4 AUDIO
    TITLE "2020-07-29T21:16:26.414Z TO:49021 Polk County - Des Moines Fire Alarm FROM:7740010"
    INDEX 01 00:15:14
  TRACK 5 AUDIO
    TITLE "2020-07-29T21:16:28.070Z Scanning..."
    INDEX 01 00:16:64
  TRACK 6 AUDIO
    TITLE "2020-07-29T21:16:29.006Z TO:1101 Polk County - Westcom Law Enforcement 1 FROM:1006"
    INDEX 01 00:17:59
  TRACK 7 AUDIO
    TITLE "2020-07-29T21:16:32.318Z TO:1101 Polk County - Westcom Law Enforcement 1 FROM:8652"
    INDEX 01 00:21:07
  TRACK 8 AUDIO
    TITLE "2020-07-29T21:16:34.838Z TO:52200 Mercy ONE Iowa Ground Dispatch FROM:10779527"
    INDEX 01 00:23:46
  TRACK 9 AUDIO
    TITLE "2020-07-29T21:16:37.430Z Scanning..."
    INDEX 01 00:26:16
  TRACK 10 AUDIO
    TITLE "2020-07-29T21:16:38.798Z TO:52200 Mercy ONE Iowa Ground Dispatch FROM:10779521"
    INDEX 01 00:27:43
  TRACK 11 AUDIO
    TITLE "2020-07-29T21:16:42.398Z Scanning..."
    INDEX 01 00:31:13
  TRACK 12 AUDIO
    TITLE "2020-07-29T21:16:43.190Z TO:1101 Polk County - Westcom Law Enforcement 1 FROM:1006"
    INDEX 01 00:31:73
  TRACK 13 AUDIO
    TITLE "2020-07-29T21:16:51.902Z TO:24605 Dallas County Law 1 FROM:2502021"
    INDEX 01 00:40:51
  TRACK 14 AUDIO
    TITLE "2020-07-29T21:16:54.710Z TO:24605 Dallas County Law 1 FROM:2559981"
    INDEX 01 00:43:37
  TRACK 15 AUDIO
    TITLE "2020-07-29T21:16:56.294Z TO:1101 Polk County - Westcom Law Enforcement 1 FROM:8652"
    INDEX 01 00:45:05
  TRACK 16 AUDIO
    TITLE "2020-07-29T21:16:58.526Z TO:52200 Mercy ONE Iowa Ground Dispatch FROM:10779527"
    INDEX 01 00:47:23
  TRACK 17 AUDIO
    TITLE "2020-07-29T21:17:05.078Z TO:1101 Polk County - Westcom Law Enforcement 1 FROM:1006"
    INDEX 01 00:53:64
  TRACK 18 AUDIO
    TITLE "2020-07-29T21:17:06.518Z TO:24605 Dallas County Law 1 FROM:2502021"
    INDEX 01 00:55:22
  TRACK 19 AUDIO
    TITLE "2020-07-29T21:17:10.406Z TO:24605 Dallas County Law 1 FROM:2559981"
    INDEX 01 00:59:14
  TRACK 20 AUDIO
    TITLE "2020-07-29T21:17:12.062Z TO:52200 Mercy ONE Iowa Ground Dispatch FROM:10779521"
    INDEX 01 01:00:63
  TRACK 21 AUDIO
    TITLE "2020-07-29T21:17:15.878Z TO:5013 Department of Public Safety - Area A P16Call 13A - Capital Police FROM:10116"
    INDEX 01 01:04:49
  TRACK 22 AUDIO
    TITLE "2020-07-29T21:17:18.542Z Scanning..."
    INDEX 01 01:07:24
  TRACK 23 AUDIO
    TITLE "2020-07-29T21:17:19.406Z TO:5013 Department of Public Safety - Area A P16Call 13A - Capital Police FROM:10993"
    INDEX 01 01:08:14
  TRACK 24 AUDIO
    TITLE "2020-07-29T21:17:22.430Z TO:52200 Mercy ONE Iowa Ground Dispatch FROM:10779527"
    INDEX 01 01:11:16
  TRACK 25 AUDIO
    TITLE "2020-07-29T21:17:26.822Z TO:52200 Mercy ONE Iowa Ground Dispatch FROM:10779521"
    INDEX 01 01:15:45